<?xml version="1.0" encoding="UTF-8"?>
<!DOCTYPE svg PUBLIC "-//W3C//DTD SVG 1.1//EN" "http://www.w3.org/Graphics/SVG/1.1/DTD/svg11.dtd">
<svg xmlns="http://www.w3.org/2000/svg" version="1.1" width="512px" height="512px" style="shape-rendering:geometricPrecision; text-rendering:geometricPrecision; image-rendering:optimizeQuality; fill-rule:evenodd; clip-rule:evenodd" xmlns:xlink="http://www.w3.org/1999/xlink">
<g><path style="opacity:0.988" fill="#5b6b75" d="M 129.5,-0.5 C 133.833,-0.5 138.167,-0.5 142.5,-0.5C 147.564,2.0678 151.064,6.0678 153,11.5C 153.5,18.8258 153.666,26.1591 153.5,33.5C 153.5,42.5 153.5,51.5 153.5,60.5C 153.909,65.6923 153.242,70.6923 151.5,75.5C 145.086,84.6853 136.753,86.8519 126.5,82C 124.266,79.9373 122.266,77.7706 120.5,75.5C 118.848,70.6591 118.182,65.6591 118.5,60.5C 118.5,51.5 118.5,42.5 118.5,33.5C 118.334,26.4921 118.5,19.4921 119,12.5C 120.534,6.47697 124.034,2.14364 129.5,-0.5 Z"/></g>
<g><path style="opacity:0.988" fill="#5b6b75" d="M 368.5,-0.5 C 372.833,-0.5 377.167,-0.5 381.5,-0.5C 386.966,2.14364 390.466,6.47697 392,12.5C 392.5,19.4921 392.666,26.4921 392.5,33.5C 392.5,42.5 392.5,51.5 392.5,60.5C 392.708,65.6354 392.041,70.6354 390.5,75.5C 384.086,84.6853 375.753,86.8519 365.5,82C 363.266,79.9373 361.266,77.7706 359.5,75.5C 357.848,70.6591 357.182,65.6591 357.5,60.5C 357.5,51.5 357.5,42.5 357.5,33.5C 357.334,26.1591 357.5,18.8258 358,11.5C 359.936,6.0678 363.436,2.0678 368.5,-0.5 Z"/></g>
<g><path style="opacity:0.998" fill="#fe425a" d="M 118.5,33.5 C 118.5,42.5 118.5,51.5 118.5,60.5C 111.825,60.3337 105.158,60.5004 98.5,61C 93.1881,65.5724 93.1881,70.2391 98.5,75C 105.826,75.4997 113.159,75.6663 120.5,75.5C 122.266,77.7706 124.266,79.9373 126.5,82C 136.753,86.8519 145.086,84.6853 151.5,75.5C 158.508,75.6663 165.508,75.4996 172.5,75C 177.689,72.0868 178.856,67.9201 176,62.5C 175.25,61.8742 174.416,61.3742 173.5,61C 166.842,60.5004 160.175,60.3337 153.5,60.5C 153.5,51.5 153.5,42.5 153.5,33.5C 221.5,33.5 289.5,33.5 357.5,33.5C 357.5,42.5 357.5,51.5 357.5,60.5C 350.825,60.3337 344.158,60.5004 337.5,61C 332.188,65.5724 332.188,70.2391 337.5,75C 344.826,75.4997 352.159,75.6663 359.5,75.5C 361.266,77.7706 363.266,79.9373 365.5,82C 375.753,86.8519 384.086,84.6853 390.5,75.5C 397.508,75.6663 404.508,75.4996 411.5,75C 416.689,72.0868 417.856,67.9201 415,62.5C 414.25,61.8742 413.416,61.3742 412.5,61C 405.842,60.5004 399.175,60.3337 392.5,60.5C 392.5,51.5 392.5,42.5 392.5,33.5C 408.167,33.5 423.833,33.5 439.5,33.5C 453.51,35.6633 463.344,43.33 469,56.5C 470.461,74.7647 470.961,93.098 470.5,111.5C 319.167,111.5 167.833,111.5 16.5,111.5C 16.3334,94.1635 16.5001,76.8301 17,59.5C 20.8333,46.3333 29.3333,37.8333 42.5,34C 67.8311,33.5 93.1645,33.3334 118.5,33.5 Z"/></g>
<g><path style="opacity:1" fill="#e43b51" d="M 439.5,33.5 C 449.172,33.3335 458.839,33.5002 468.5,34C 481.667,37.8333 490.167,46.3333 494,59.5C 494.5,90.8316 494.667,122.165 494.5,153.5C 486.5,153.5 478.5,153.5 470.5,153.5C 319.167,153.5 167.833,153.5 16.5,153.5C 16.5,153.167 16.5,152.833 16.5,152.5C 167.833,152.5 319.167,152.5 470.5,152.5C 470.5,143.833 470.5,135.167 470.5,126.5C 319.167,126.5 167.833,126.5 16.5,126.5C 16.5,121.5 16.5,116.5 16.5,111.5C 167.833,111.5 319.167,111.5 470.5,111.5C 470.961,93.098 470.461,74.7647 469,56.5C 463.344,43.33 453.51,35.6633 439.5,33.5 Z"/></g>
<g><path style="opacity:1" fill="#e3374e" d="M 118.5,60.5 C 118.182,65.6591 118.848,70.6591 120.5,75.5C 113.159,75.6663 105.826,75.4997 98.5,75C 93.1881,70.2391 93.1881,65.5724 98.5,61C 105.158,60.5004 111.825,60.3337 118.5,60.5 Z"/></g>
<g><path style="opacity:1" fill="#e3374e" d="M 153.5,60.5 C 160.175,60.3337 166.842,60.5004 173.5,61C 174.416,61.3742 175.25,61.8742 176,62.5C 178.856,67.9201 177.689,72.0868 172.5,75C 165.508,75.4996 158.508,75.6663 151.5,75.5C 153.242,70.6923 153.909,65.6923 153.5,60.5 Z"/></g>
<g><path style="opacity:1" fill="#e2374e" d="M 357.5,60.5 C 357.182,65.6591 357.848,70.6591 359.5,75.5C 352.159,75.6663 344.826,75.4997 337.5,75C 332.188,70.2391 332.188,65.5724 337.5,61C 344.158,60.5004 350.825,60.3337 357.5,60.5 Z"/></g>
<g><path style="opacity:1" fill="#e2374e" d="M 392.5,60.5 C 399.175,60.3337 405.842,60.5004 412.5,61C 413.416,61.3742 414.25,61.8742 415,62.5C 417.856,67.9201 416.689,72.0868 411.5,75C 404.508,75.4996 397.508,75.6663 390.5,75.5C 392.041,70.6354 392.708,65.6354 392.5,60.5 Z"/></g>
<g><path style="opacity:1" fill="#fe425a" d="M 16.5,126.5 C 167.833,126.5 319.167,126.5 470.5,126.5C 470.5,135.167 470.5,143.833 470.5,152.5C 319.167,152.5 167.833,152.5 16.5,152.5C 16.5,143.833 16.5,135.167 16.5,126.5 Z"/></g>
<g><path style="opacity:1" fill="#ecf4fe" d="M 16.5,153.5 C 167.833,153.5 319.167,153.5 470.5,153.5C 470.667,252.501 470.5,351.501 470,450.5C 467.519,460.3 462.019,467.8 453.5,473C 450.107,474.62 446.774,476.12 443.5,477.5C 310.833,477.667 178.166,477.5 45.5,477C 30.4587,473.458 20.792,464.291 16.5,449.5C 16.5,350.833 16.5,252.167 16.5,153.5 Z"/></g>
<g><path style="opacity:1" fill="#d5e8fe" d="M 470.5,153.5 C 478.5,153.5 486.5,153.5 494.5,153.5C 494.5,252.167 494.5,350.833 494.5,449.5C 490.874,462.438 482.874,471.438 470.5,476.5C 461.54,477.415 452.54,477.748 443.5,477.5C 446.774,476.12 450.107,474.62 453.5,473C 462.019,467.8 467.519,460.3 470,450.5C 470.5,351.501 470.667,252.501 470.5,153.5 Z"/></g>
<g><path style="opacity:1" fill="#5a6c76" d="M 188.5,204.5 C 226.856,202.058 251.689,219.058 263,255.5C 266.412,278.72 259.912,298.553 243.5,315C 263.218,334.707 268.718,357.873 260,384.5C 245.643,416.101 221.143,429.601 186.5,425C 152.535,414.712 136.035,391.879 137,356.5C 143.658,344.643 152.824,342.31 164.5,349.5C 169.707,355.093 171.873,361.76 171,369.5C 178.791,389.643 192.957,396.143 213.5,389C 226.375,381.077 231.541,369.577 229,354.5C 223.544,338.739 212.377,331.239 195.5,332C 185.233,327.902 181.4,320.402 184,309.5C 185.4,306.098 187.567,303.264 190.5,301C 198.173,299.215 205.839,297.215 213.5,295C 226.375,287.077 231.541,275.577 229,260.5C 222.695,244.194 210.862,237.027 193.5,239C 176.575,244.656 168.409,256.489 169,274.5C 162.705,285.894 153.872,288.394 142.5,282C 140.031,279.559 138.198,276.726 137,273.5C 135.346,247.307 145.513,227.141 167.5,213C 174.342,209.45 181.342,206.616 188.5,204.5 Z"/></g>
<g><path style="opacity:1" fill="#596c76" d="M 334.5,204.5 C 344.758,203.207 351.925,207.207 356,216.5C 356.667,282.167 356.667,347.833 356,413.5C 350.409,425.884 341.575,429.051 329.5,423C 325.675,420.512 323.508,417.012 323,412.5C 322.833,362.83 322.333,313.163 321.5,263.5C 318.646,266.188 315.646,268.688 312.5,271C 298.439,274.642 290.439,269.308 288.5,255C 288.656,251.183 289.822,247.683 292,244.5C 304.167,232.333 316.333,220.167 328.5,208C 330.727,207.059 332.727,205.892 334.5,204.5 Z"/></g>
<g><path style="opacity:0.999" fill="#b5dbff" d="M 16.5,449.5 C 20.792,464.291 30.4587,473.458 45.5,477C 178.166,477.5 310.833,477.667 443.5,477.5C 452.54,477.748 461.54,477.415 470.5,476.5C 469.52,495.501 459.854,507.167 441.5,511.5C 308.5,511.5 175.5,511.5 42.5,511.5C 29.5255,507.358 21.0255,498.691 17,485.5C 16.5001,473.505 16.3335,461.505 16.5,449.5 Z"/></g>
<g><path style="opacity:1" fill="#98d0ff" d="M 494.5,449.5 C 494.925,462.894 494.425,476.227 493,489.5C 488.066,500.609 479.9,507.942 468.5,511.5C 459.5,511.5 450.5,511.5 441.5,511.5C 459.854,507.167 469.52,495.501 470.5,476.5C 482.874,471.438 490.874,462.438 494.5,449.5 Z"/></g>
</svg>
